# Blender v2.81 (sub 16) OBJ File: 'obamium.blend'
# www.blender.org
mtllib obamium.mtl
o Cone
v 0.698107 0.000000 0.698107
v 0.702538 0.007754 0.692444
v 0.692444 0.007754 0.702538
v 0.701871 0.001172 0.696278
v 0.696278 0.001172 0.701871
v 0.700679 0.002127 0.700679
v 0.700342 0.008954 0.696677
v 0.703439 0.003916 0.694273
v 0.701928 0.004471 0.699072
v 0.694274 0.003916 0.703439
v 0.696677 0.008954 0.700342
v 0.699072 0.004471 0.701928
v -0.698107 0.000000 0.698107
v -0.692444 0.007754 0.702538
v -0.702538 0.007754 0.692444
v -0.696278 0.001172 0.701871
v -0.701871 0.001172 0.696278
v -0.700679 0.002127 0.700679
v -0.696677 0.008954 0.700342
v -0.694273 0.003916 0.703439
v -0.699072 0.004471 0.701928
v -0.703439 0.003916 0.694274
v -0.700342 0.008954 0.696677
v -0.701928 0.004471 0.699073
v -0.698107 0.000000 -0.698107
v -0.702538 0.007754 -0.692444
v -0.692444 0.007754 -0.702538
v -0.701871 0.001172 -0.696278
v -0.696278 0.001172 -0.701871
v -0.700679 0.002127 -0.700679
v -0.700342 0.008954 -0.696677
v -0.703439 0.003916 -0.694273
v -0.701928 0.004471 -0.699072
v -0.694274 0.003916 -0.703439
v -0.696677 0.008954 -0.700342
v -0.699072 0.004471 -0.701928
v 0.698107 0.000000 -0.698107
v 0.692444 0.007754 -0.702538
v 0.702538 0.007754 -0.692444
v 0.696278 0.001172 -0.701871
v 0.701871 0.001172 -0.696278
v 0.700679 0.002127 -0.700679
v 0.696677 0.008954 -0.700342
v 0.694273 0.003916 -0.703439
v 0.699072 0.004471 -0.701928
v 0.703439 0.003916 -0.694274
v 0.700342 0.008954 -0.696677
v 0.701928 0.004471 -0.699073
v 0.010093 1.182871 0.000000
v -0.000000 1.182871 -0.010093
v -0.010093 1.182871 0.000000
v -0.000000 1.182871 0.010093
v 0.007898 1.184071 -0.004233
v 0.007898 1.184072 0.004233
v 0.004028 1.187543 0.000000
v -0.004233 1.184071 -0.007898
v 0.004233 1.184072 -0.007898
v -0.000000 1.187543 -0.004028
v -0.007898 1.184071 0.004233
v -0.007898 1.184071 -0.004233
v -0.004028 1.187543 0.000000
v 0.004233 1.184071 0.007898
v -0.004233 1.184072 0.007898
v -0.000000 1.187543 0.004028
vt 0.083434 0.997956
vt 0.384363 0.701103
vt 0.685506 0.997727
vt 0.685902 0.395687
vt 0.384840 0.691938
vt 0.084214 0.395827
vt 0.692710 0.995533
vt 0.391832 0.699203
vt 0.994201 0.699557
vt 0.993896 0.694558
vt 0.390874 0.694760
vt 0.692409 0.398610
vt 0.688117 0.391478
vt 0.689755 0.391025
vt 0.689236 0.392115
vt 0.687321 0.392410
vt 0.692033 0.390529
vt 0.692032 0.391717
vt 0.687346 0.997258
vt 0.688387 0.998273
vt 0.686301 0.998545
vt 0.691077 0.996204
vt 0.692101 0.997223
vt 0.693558 0.996333
vt 0.694856 0.997331
vt 0.693897 0.998271
vt 0.688536 0.393706
vt 0.080832 0.391382
vt 0.081627 0.392313
vt 0.079713 0.392018
vt 0.079195 0.390929
vt 0.082498 0.393609
vt 0.080411 0.393608
vt 0.994411 0.698419
vt 0.996478 0.698415
vt 0.995845 0.699576
vt 0.994105 0.695696
vt 0.996174 0.695701
vt 0.995543 0.694540
vt 0.997715 0.694399
vt 0.998673 0.695340
vt 0.076917 0.391620
vt 0.080976 0.046015
vt 0.079338 0.046468
vt 0.079857 0.045379
vt 0.081772 0.045083
vt 0.077060 0.046964
vt 0.077061 0.045777
vt 0.690775 0.397939
vt 0.691801 0.396920
vt 0.693259 0.397810
vt 0.687741 0.396153
vt 0.688782 0.395139
vt 0.686697 0.394869
vt 0.687569 0.393732
vt 0.689481 0.393732
vt 0.080557 0.043788
vt 0.688427 0.045764
vt 0.687632 0.044833
vt 0.689546 0.045127
vt 0.690064 0.046216
vt 0.686761 0.043537
vt 0.688849 0.043536
vt 0.082375 0.396294
vt 0.081335 0.395281
vt 0.083420 0.395010
vt 0.080727 0.396712
vt 0.079696 0.395697
vt 0.082640 0.998775
vt 0.080553 0.998505
vt 0.081594 0.997489
vt 0.081769 0.999915
vt 0.079855 0.999915
vt 0.692342 0.045524
vt 0.382523 0.700636
vt 0.384362 0.699558
vt 0.386203 0.700635
vt 0.380874 0.700218
vt 0.382120 0.698989
vt 0.386678 0.692404
vt 0.384839 0.693480
vt 0.383000 0.692405
vt 0.389240 0.694088
vt 0.388519 0.695531
vt 0.391083 0.695898
vt 0.392042 0.698065
vt 0.389480 0.698431
vt 0.390199 0.699874
vt 0.385887 0.698280
vt 0.386605 0.698987
vt 0.998015 0.699717
vt 0.694559 0.396813
vt 0.082550 0.393873
vt 0.079945 0.997071
vt 0.687173 0.999684
vn 0.8971 0.4221 -0.1302
vn 0.7491 0.6624 0.0000
vn 0.8971 0.4221 0.1303
vn -0.1303 0.4221 -0.8971
vn 0.0000 0.6624 -0.7491
vn 0.1303 0.4221 -0.8971
vn 0.1303 0.4221 0.8971
vn 0.0000 0.6624 0.7491
vn -0.1303 0.4221 0.8971
vn -0.8971 0.4221 0.1302
vn -0.7491 0.6624 0.0000
vn -0.8971 0.4221 -0.1303
vn 0.1942 -0.9615 0.1942
vn 0.6811 -0.7089 0.1830
vn 0.6298 -0.4546 0.6298
vn 0.1830 -0.7089 0.6811
vn 0.9870 -0.0629 0.1480
vn 0.8587 0.1684 0.4840
vn 0.7179 0.5550 0.4201
vn 0.4201 0.5550 0.7179
vn 0.4840 0.1684 0.8587
vn 0.1480 -0.0629 0.9870
vn -0.1942 -0.9615 0.1942
vn -0.1830 -0.7089 0.6811
vn -0.6298 -0.4546 0.6298
vn -0.6811 -0.7089 0.1830
vn -0.1480 -0.0629 0.9870
vn -0.4840 0.1684 0.8587
vn -0.4201 0.5550 0.7179
vn -0.7179 0.5550 0.4201
vn -0.8587 0.1684 0.4840
vn -0.9870 -0.0629 0.1480
vn -0.1942 -0.9615 -0.1942
vn -0.6811 -0.7089 -0.1830
vn -0.6298 -0.4546 -0.6298
vn -0.1830 -0.7089 -0.6811
vn -0.9870 -0.0629 -0.1480
vn -0.8587 0.1684 -0.4840
vn -0.7179 0.5550 -0.4201
vn -0.4201 0.5550 -0.7179
vn -0.4840 0.1684 -0.8587
vn -0.1480 -0.0629 -0.9870
vn 0.1942 -0.9615 -0.1942
vn 0.1830 -0.7089 -0.6811
vn 0.6298 -0.4546 -0.6298
vn 0.6811 -0.7089 -0.1830
vn 0.1480 -0.0629 -0.9870
vn 0.4840 0.1684 -0.8587
vn 0.4201 0.5550 -0.7179
vn 0.7179 0.5550 -0.4201
vn 0.8587 0.1684 -0.4840
vn 0.9870 -0.0629 -0.1480
vn 0.5922 0.7460 -0.3045
vn 0.3478 0.9375 0.0000
vn 0.5922 0.7460 0.3045
vn 0.3045 0.7460 -0.5922
vn 0.0000 0.9375 -0.3478
vn -0.3045 0.7460 -0.5922
vn -0.5922 0.7460 -0.3045
vn -0.3478 0.9375 0.0000
vn -0.5922 0.7460 0.3045
vn -0.3045 0.7460 0.5922
vn 0.0000 0.9375 0.3478
vn 0.3045 0.7460 0.5922
usemtl Material.001
s 1
f 39/1/1 49/2/2 2/3/3
f 27/4/4 50/5/5 38/6/6
f 3/7/7 52/8/8 14/9/9
f 15/10/10 51/11/11 26/12/12
f 1/13/13 4/14/14 6/15/15 5/16/16
f 4/14/14 8/17/17 9/18/18 6/15/15
f 2/3/3 7/19/19 9/20/18 8/21/17
f 7/19/19 11/22/20 12/23/21 9/20/18
f 3/7/7 10/24/22 12/23/21 11/22/20
f 10/24/22 5/25/16 6/26/15 12/23/21
f 6/15/15 9/18/18 12/27/21
f 13/28/23 16/29/24 18/30/25 17/31/26
f 16/29/24 20/32/27 21/33/28 18/30/25
f 14/9/9 19/34/29 21/35/28 20/36/27
f 19/34/29 23/37/30 24/38/31 21/35/28
f 15/10/10 22/39/32 24/38/31 23/37/30
f 22/39/32 17/40/26 18/41/25 24/38/31
f 18/30/25 21/33/28 24/42/31
f 25/43/33 28/44/34 30/45/35 29/46/36
f 28/44/34 32/47/37 33/48/38 30/45/35
f 26/12/12 31/49/39 33/50/38 32/51/37
f 31/49/39 35/52/40 36/53/41 33/50/38
f 27/4/4 34/54/42 36/53/41 35/52/40
f 34/54/42 29/55/36 30/56/35 36/53/41
f 30/45/35 33/48/38 36/57/41
f 37/58/43 40/59/44 42/60/45 41/61/46
f 40/59/44 44/62/47 45/63/48 42/60/45
f 38/6/6 43/64/49 45/65/48 44/66/47
f 43/64/49 47/67/50 48/68/51 45/65/48
f 39/1/1 46/69/52 48/70/51 47/71/50
f 46/69/52 41/72/46 42/73/45 48/70/51
f 42/60/45 45/63/48 48/74/51
f 49/2/2 53/75/53 55/76/54 54/77/55
f 53/75/53 57/78/56 58/79/57 55/76/54
f 50/5/5 56/80/58 58/81/57 57/82/56
f 56/80/58 60/83/59 61/84/60 58/81/57
f 51/11/11 59/85/61 61/84/60 60/83/59
f 59/85/61 63/86/62 64/87/63 61/84/60
f 52/8/8 62/88/64 64/87/63 63/86/62
f 62/88/64 54/77/55 55/76/54 64/87/63
f 55/76/54 58/79/57 61/89/60 64/90/63
f 3/7/7 14/9/9 20/36/27 10/24/22
f 10/24/22 20/36/27 16/91/24 5/25/16
f 5/16/16 16/29/24 13/28/23 1/13/13
f 2/3/3 49/2/2 54/77/55 7/19/19
f 7/19/19 54/77/55 62/88/64 11/22/20
f 11/22/20 62/88/64 52/8/8 3/7/7
f 51/11/11 15/10/10 23/37/30 59/85/61
f 59/85/61 23/37/30 19/34/29 63/86/62
f 63/86/62 19/34/29 14/9/9 52/8/8
f 15/10/10 26/12/12 32/51/37 22/39/32
f 22/39/32 32/51/37 28/92/34 17/40/26
f 17/31/26 28/44/34 25/43/33 13/28/23
f 50/5/5 27/4/4 35/52/40 56/80/58
f 56/80/58 35/52/40 31/49/39 60/83/59
f 60/83/59 31/49/39 26/12/12 51/11/11
f 27/4/4 38/6/6 44/66/47 34/54/42
f 34/54/42 44/66/47 40/93/44 29/55/36
f 29/46/36 40/59/44 37/58/43 25/43/33
f 49/2/2 39/1/1 47/71/50 53/75/53
f 53/75/53 47/71/50 43/94/49 57/78/56
f 57/82/56 43/64/49 38/6/6 50/5/5
f 39/1/1 2/3/3 8/21/17 46/69/52
f 46/69/52 8/21/17 4/95/14 41/72/46
f 41/61/46 4/14/14 1/13/13 37/58/43
f 1/13/13 13/28/23 25/43/33 37/58/43
